# Blender v2.82 (sub 7) OBJ File: 'uni.blend'
# www.blender.org
mtllib uni.mtl
o Cube.001
v -1.000128 -1.000000 -0.999872
v -1.000128 1.000000 -0.999872
v 0.999872 -1.000000 -1.000128
v 0.999872 1.000000 -1.000128
v -0.999872 -1.000000 1.000128
v -0.999872 1.000000 1.000128
v 1.000128 -1.000000 0.999872
v 1.000128 1.000000 0.999872
v 3.000064 1.000000 0.499615
v 3.000064 -1.000000 0.499615
v -2.999936 1.000000 0.500385
v -2.999936 -1.000000 0.500385
v 2.999808 1.000000 -1.500385
v 2.999808 -1.000000 -1.500385
v -3.000192 1.000000 -1.499615
v -3.000192 -1.000000 -1.499615
v -3.000128 -1.000000 -0.999615
v -3.000128 0.600000 -0.999615
v -2.400128 -1.000000 -0.999692
v -2.400128 0.600000 -0.999692
v -2.999872 -1.000000 1.000385
v -2.999872 0.600000 1.000385
v -2.399872 -1.000000 1.000308
v -2.399872 0.600000 1.000308
v 2.399872 -1.000000 -1.000308
v 2.399872 0.600000 -1.000308
v 2.999872 -1.000000 -1.000385
v 2.999872 0.600000 -1.000385
v 2.400128 -1.000000 0.999692
v 2.400128 0.600000 0.999692
v 3.000128 -1.000000 0.999615
v 3.000128 0.600000 0.999615
vt 0.375000 0.000000
vt 0.625000 0.000000
vt 0.625000 0.250000
vt 0.375000 0.250000
vt 0.625000 0.500000
vt 0.375000 0.500000
vt 0.625000 0.750000
vt 0.375000 0.750000
vt 0.625000 1.000000
vt 0.375000 1.000000
vt 0.125000 0.500000
vt 0.125000 0.750000
vt 0.875000 0.500000
vt 0.875000 0.750000
vt 0.625000 0.500000
vt 0.875000 0.500000
vt 0.875000 0.750000
vt 0.625000 0.750000
vt 0.375000 0.750000
vt 0.625000 1.000000
vt 0.375000 1.000000
vt 0.375000 0.000000
vt 0.625000 0.000000
vt 0.625000 0.250000
vt 0.375000 0.250000
vt 0.125000 0.500000
vt 0.375000 0.500000
vt 0.125000 0.750000
vt 0.375000 0.000000
vt 0.625000 0.000000
vt 0.625000 0.250000
vt 0.375000 0.250000
vt 0.625000 0.500000
vt 0.375000 0.500000
vt 0.625000 0.750000
vt 0.375000 0.750000
vt 0.625000 1.000000
vt 0.375000 1.000000
vt 0.125000 0.500000
vt 0.125000 0.750000
vt 0.875000 0.500000
vt 0.875000 0.750000
vt 0.375000 0.000000
vt 0.625000 0.000000
vt 0.625000 0.250000
vt 0.375000 0.250000
vt 0.625000 0.500000
vt 0.375000 0.500000
vt 0.625000 0.750000
vt 0.375000 0.750000
vt 0.625000 1.000000
vt 0.375000 1.000000
vt 0.125000 0.500000
vt 0.125000 0.750000
vt 0.875000 0.500000
vt 0.875000 0.750000
vn -0.0001 0.0000 -1.0000
vn 1.0000 0.0000 -0.0001
vn 0.0001 0.0000 1.0000
vn -1.0000 0.0000 0.0001
vn 0.0000 -1.0000 0.0000
vn 0.0000 1.0000 0.0000
usemtl Material
s off
f 1/1/1 2/2/1 4/3/1 3/4/1
f 3/4/2 4/3/2 8/5/2 7/6/2
f 7/6/3 8/5/3 6/7/3 5/8/3
f 5/8/4 6/7/4 2/9/4 1/10/4
f 3/11/5 7/6/5 5/8/5 1/12/5
f 8/5/6 4/13/6 2/14/6 6/7/6
f 9/15/6 13/16/6 15/17/6 11/18/6
f 12/19/4 11/18/4 15/20/4 16/21/4
f 16/22/1 15/23/1 13/24/1 14/25/1
f 14/26/5 10/27/5 12/19/5 16/28/5
f 10/27/3 9/15/3 11/18/3 12/19/3
f 14/25/2 13/24/2 9/15/2 10/27/2
f 17/29/1 18/30/1 20/31/1 19/32/1
f 19/32/2 20/31/2 24/33/2 23/34/2
f 23/34/3 24/33/3 22/35/3 21/36/3
f 21/36/4 22/35/4 18/37/4 17/38/4
f 19/39/5 23/34/5 21/36/5 17/40/5
f 24/33/6 20/41/6 18/42/6 22/35/6
f 25/43/1 26/44/1 28/45/1 27/46/1
f 27/46/2 28/45/2 32/47/2 31/48/2
f 31/48/3 32/47/3 30/49/3 29/50/3
f 29/50/4 30/49/4 26/51/4 25/52/4
f 27/53/5 31/48/5 29/50/5 25/54/5
f 32/47/6 28/55/6 26/56/6 30/49/6
